<svg width="48" height="48" viewBox="0 0 48 48" fill="none" xmlns="http://www.w3.org/2000/svg">
<path fill-rule="evenodd" clip-rule="evenodd" d="M45 6C45 5.20435 44.6839 4.44129 44.1213 3.87868C43.5587 3.31607 42.7957 3 42 3H6C5.20435 3 4.44129 3.31607 3.87868 3.87868C3.31607 4.44129 3 5.20435 3 6V42C3 42.7957 3.31607 43.5587 3.87868 44.1213C4.44129 44.6839 5.20435 45 6 45H42C42.7957 45 43.5587 44.6839 44.1213 44.1213C44.6839 43.5587 45 42.7957 45 42V6ZM0 6C0 4.4087 0.632141 2.88258 1.75736 1.75736C2.88258 0.632141 4.4087 0 6 0L42 0C43.5913 0 45.1174 0.632141 46.2426 1.75736C47.3679 2.88258 48 4.4087 48 6V42C48 43.5913 47.3679 45.1174 46.2426 46.2426C45.1174 47.3679 43.5913 48 42 48H6C4.4087 48 2.88258 47.3679 1.75736 46.2426C0.632141 45.1174 0 43.5913 0 42V6ZM25.5 34.5C25.5 34.8978 25.342 35.2794 25.0607 35.5607C24.7794 35.842 24.3978 36 24 36C23.6022 36 23.2206 35.842 22.9393 35.5607C22.658 35.2794 22.5 34.8978 22.5 34.5V17.121L16.062 23.562C15.7803 23.8437 15.3983 24.0019 15 24.0019C14.6017 24.0019 14.2197 23.8437 13.938 23.562C13.6563 23.2803 13.4981 22.8983 13.4981 22.5C13.4981 22.1017 13.6563 21.7197 13.938 21.438L22.938 12.438C23.0773 12.2983 23.2429 12.1875 23.4251 12.1119C23.6073 12.0362 23.8027 11.9973 24 11.9973C24.1973 11.9973 24.3927 12.0362 24.5749 12.1119C24.7571 12.1875 24.9227 12.2983 25.062 12.438L34.062 21.438C34.3437 21.7197 34.5019 22.1017 34.5019 22.5C34.5019 22.8983 34.3437 23.2803 34.062 23.562C33.7803 23.8437 33.3983 24.0019 33 24.0019C32.6017 24.0019 32.2197 23.8437 31.938 23.562L25.5 17.121V34.5Z" fill="black"/>
</svg>
