<svg width="48" height="48" viewBox="0 0 48 48" fill="none" xmlns="http://www.w3.org/2000/svg">
<g clip-path="url(#clip0_88_210)">
<path d="M24.153 5.99707H24.42C26.886 6.00607 39.381 6.09607 42.75 7.00207C43.7685 7.27858 44.6966 7.81754 45.4415 8.56509C46.1864 9.31265 46.7221 10.2426 46.995 11.2621C47.298 12.4021 47.511 13.9111 47.655 15.4681L47.685 15.7801L47.751 16.5601L47.775 16.8721C47.97 19.6141 47.994 22.1821 47.997 22.7431V22.9681C47.994 23.5501 47.967 26.2921 47.751 29.1481L47.727 29.4631L47.7 29.7751C47.55 31.4911 47.328 33.1951 46.995 34.4491C46.7229 35.4689 46.1875 36.3993 45.4425 37.147C44.6974 37.8947 43.7689 38.4334 42.75 38.7091C39.27 39.6451 26.043 39.7111 24.21 39.7141H23.784C22.857 39.7141 19.023 39.6961 15.003 39.5581L14.493 39.5401L14.232 39.5281L13.719 39.5071L13.206 39.4861C9.876 39.3391 6.705 39.1021 5.244 38.7061C4.22547 38.4307 3.2972 37.8924 2.55217 37.1453C1.80715 36.3982 1.27154 35.4684 0.999 34.4491C0.666 33.1981 0.444 31.4911 0.294 29.7751L0.27 29.4601L0.246 29.1481C0.0979428 27.1153 0.0158996 25.0782 0 23.0401L0 22.6711C0.006 22.0261 0.03 19.7971 0.192 17.3371L0.213 17.0281L0.222 16.8721L0.246 16.5601L0.312 15.7801L0.342 15.4681C0.486 13.9111 0.699 12.3991 1.002 11.2621C1.27408 10.2422 1.80949 9.3118 2.55454 8.56412C3.29959 7.81643 4.22811 7.27775 5.247 7.00207C6.708 6.61207 9.879 6.37207 13.209 6.22207L13.719 6.20107L14.235 6.18307L14.493 6.17407L15.006 6.15307C17.8611 6.06119 20.7174 6.01019 23.574 6.00007H24.153V5.99707ZM19.2 15.6271V30.0811L31.671 22.8571L19.2 15.6271Z" fill="#666666"/>
</g>
<defs>
<clipPath id="clip0_88_210">
<rect width="48" height="48" fill="white"/>
</clipPath>
</defs>
</svg>
