<svg id="Layer_1" data-name="Layer 1" xmlns="http://www.w3.org/2000/svg" viewBox="0 0 120 115.39"><defs><style>.cls-1{fill:#020202;}.cls-2{fill:#fef200;}</style></defs><title>icon-question</title><path class="cls-1" d="M60,2.93C27.35,2.93,0,26.37,0,56,0,70,6.27,82.53,16.15,91.91a31,31,0,0,1-5,8.66,75.24,75.24,0,0,1-9.37,9.52,4.63,4.63,0,0,0-1.47,5.13,4.62,4.62,0,0,0,4.36,3.09c10.22,0,17.57-.12,24.23-1.87,5.95-1.58,11.07-4.89,16.29-9.53A63.3,63.3,0,0,0,60,109.08c32.65,0,60-23.45,60-53.08S92.65,2.93,60,2.93Zm0,96.92a58,58,0,0,1-15-2.17,4.63,4.63,0,0,0-2.31,0,4.52,4.52,0,0,0-2,1.14c-5.19,5-9,7.3-14.13,8.65-2.36.62-6.9.48-10.1.73.65-.73,1.25-1.12,1.88-1.88,3.63-4.43,6.94-9.12,7.93-14.43A4.56,4.56,0,0,0,26,89.54a4.65,4.65,0,0,0-1.38-2C15,79.61,9.23,68.41,9.23,56c0-23.91,22.5-43.84,50.77-43.84S110.77,32.09,110.77,56,88.27,99.85,60,99.85Z" transform="translate(0 -2.93)"/><path class="cls-2" d="M50.91,32.1a4.7,4.7,0,0,0-2.16,1.16l-6.92,6.49L48,46.53l5.48-5.19h11.1l4.33,4.91V53L57.11,61a4.6,4.6,0,0,0-1.5,1.69,4.54,4.54,0,0,0-.51,2.2v9.23h9.23V67.44l11.83-7.93a4.7,4.7,0,0,0,1.5-1.69,4.56,4.56,0,0,0,.51-2.2V44.51a4.59,4.59,0,0,0-1.15-3L70.1,33.69a5,5,0,0,0-1.56-1.17,4.83,4.83,0,0,0-1.91-.42H51.92A5.68,5.68,0,0,0,50.91,32.1Z" transform="translate(0 -2.93)"/><rect class="cls-2" x="55.1" y="75.77" width="9.23" height="9.23"/></svg>